<svg width="263" height="60" viewBox="0 0 263 60" fill="none" xmlns="http://www.w3.org/2000/svg">
<path d="M32.1456 19.1818V41H28.1612L18.669 27.2678H18.5092V41H13.8963V19.1818H17.9446L27.3622 32.9034H27.554V19.1818H32.1456Z" fill="white"/>
<mask id="mask0_512_156" style="mask-type:luminance" maskUnits="userSpaceOnUse" x="37" y="18" width="20" height="24">
<path d="M46.4724 19.0209L37.7556 24.0522C37.5954 24.1445 37.4624 24.2773 37.37 24.4374C37.2775 24.5974 37.2288 24.779 37.2288 24.9638V35.0334C37.2288 35.4093 37.4291 35.7567 37.7556 35.945L46.4731 40.9802C46.6332 41.0725 46.8148 41.121 46.9996 41.121C47.1845 41.121 47.366 41.0725 47.5262 40.9802L56.2423 35.945C56.402 35.8524 56.5346 35.7194 56.6269 35.5595C56.7191 35.3995 56.7677 35.2181 56.7678 35.0334V24.9638C56.7678 24.5881 56.5671 24.2405 56.2402 24.0522L47.5254 19.0209C47.3648 18.9287 47.1829 18.8802 46.9978 18.8802C46.8126 18.8802 46.6307 18.9287 46.4702 19.0209" fill="white"/>
</mask>
<g mask="url(#mask0_512_156)">
<path d="M65.5765 23.1979L41.0139 11.1581L28.4197 36.8502L52.9817 48.8906L65.5765 23.1979Z" fill="url(#paint0_linear_512_156)"/>
</g>
<mask id="mask1_512_156" style="mask-type:luminance" maskUnits="userSpaceOnUse" x="37" y="18" width="20" height="24">
<path d="M37.4448 35.6727C37.5282 35.7809 37.6325 35.8747 37.7552 35.945L45.2327 40.2641L46.4782 40.98C46.6645 41.0876 46.8767 41.1331 47.0853 41.1176C47.1548 41.112 47.2243 41.099 47.2922 41.0797L56.4858 24.246C56.4154 24.1695 56.3331 24.1053 56.2408 24.0515L50.5331 20.7556L47.5161 19.0196C47.4304 18.971 47.3385 18.9341 47.243 18.91L37.4448 35.6727Z" fill="white"/>
</mask>
<g mask="url(#mask1_512_156)">
<path d="M26.8248 26.7589L44.1686 50.2327L67.1059 33.2861L49.7612 9.81281L26.8248 26.7589Z" fill="url(#paint1_linear_512_156)"/>
</g>
<mask id="mask2_512_156" style="mask-type:luminance" maskUnits="userSpaceOnUse" x="37" y="18" width="20" height="24">
<path d="M46.8937 18.886C46.7455 18.901 46.602 18.9469 46.4727 19.0209L37.7806 24.0377L47.1534 41.1094C47.2837 41.0907 47.412 41.0473 47.5279 40.9803L56.2447 35.945C56.3763 35.8689 56.49 35.7652 56.5778 35.641C56.6656 35.5169 56.7256 35.3753 56.7537 35.2258L47.1989 18.9032C47.1287 18.8892 47.0573 18.8821 46.9858 18.8821L46.8989 18.8862" fill="white"/>
</mask>
<g mask="url(#mask2_512_156)">
<path d="M37.7803 18.8821V41.1098H56.7499V18.8821H37.7803Z" fill="url(#paint2_linear_512_156)"/>
</g>
<path d="M66.8409 41.2663C65.598 41.2663 64.4723 40.9467 63.4638 40.3075C62.4624 39.6612 61.6669 38.7131 61.0774 37.4631C60.495 36.206 60.2038 34.6648 60.2038 32.8395C60.2038 30.9645 60.5057 29.4055 61.1094 28.1626C61.7131 26.9126 62.5156 25.9787 63.517 25.3608C64.5256 24.7358 65.63 24.4233 66.8303 24.4233C67.7464 24.4233 68.5099 24.5795 69.1207 24.892C69.7386 25.1974 70.2358 25.581 70.6122 26.0426C70.9957 26.4972 71.2869 26.9446 71.4858 27.3849H71.6243V19.1818H76.152V41H71.6776V38.3793H71.4858C71.2727 38.8338 70.9709 39.2848 70.5803 39.7322C70.1967 40.1726 69.696 40.5384 69.0781 40.8295C68.4673 41.1207 67.7216 41.2663 66.8409 41.2663ZM68.2791 37.6548C69.0107 37.6548 69.6286 37.456 70.1328 37.0582C70.6442 36.6534 71.0348 36.0888 71.3047 35.3643C71.5817 34.6399 71.7202 33.7912 71.7202 32.8182C71.7202 31.8452 71.5852 31 71.3153 30.2827C71.0455 29.5653 70.6548 29.0114 70.1435 28.6207C69.6321 28.2301 69.0107 28.0348 68.2791 28.0348C67.5334 28.0348 66.9048 28.2372 66.3935 28.642C65.8821 29.0469 65.495 29.608 65.2322 30.3253C64.9695 31.0426 64.8381 31.8736 64.8381 32.8182C64.8381 33.7699 64.9695 34.6115 65.2322 35.343C65.5021 36.0675 65.8892 36.6357 66.3935 37.0476C66.9048 37.4524 67.5334 37.6548 68.2791 37.6548ZM88.2407 41.3196C86.5575 41.3196 85.1086 40.9787 83.8941 40.2969C82.6868 39.608 81.7564 38.6349 81.1029 37.3778C80.4495 36.1136 80.1228 34.6186 80.1228 32.8928C80.1228 31.2095 80.4495 29.7322 81.1029 28.4609C81.7564 27.1896 82.6761 26.1989 83.8622 25.4886C85.0554 24.7784 86.4545 24.4233 88.0596 24.4233C89.1392 24.4233 90.1441 24.5973 91.0745 24.9453C92.012 25.2862 92.8288 25.8011 93.5248 26.4901C94.2279 27.179 94.7748 28.0455 95.1654 29.0895C95.5561 30.1264 95.7514 31.3409 95.7514 32.733V33.9794H81.9339V31.1669H91.4794C91.4794 30.5135 91.3373 29.9347 91.0532 29.4304C90.7691 28.9261 90.375 28.532 89.8707 28.2479C89.3735 27.9567 88.7947 27.8111 88.1342 27.8111C87.4453 27.8111 86.8345 27.9709 86.3018 28.2905C85.7762 28.603 85.3643 29.0256 85.066 29.5582C84.7677 30.0838 84.615 30.6697 84.6079 31.3161V33.9901C84.6079 34.7997 84.7571 35.4993 85.0554 36.0888C85.3608 36.6783 85.7904 37.1328 86.3444 37.4524C86.8984 37.772 87.5554 37.9318 88.3153 37.9318C88.8196 37.9318 89.2812 37.8608 89.7002 37.7188C90.1193 37.5767 90.4779 37.3636 90.7762 37.0795C91.0745 36.7955 91.3018 36.4474 91.4581 36.0355L95.6555 36.3125C95.4424 37.321 95.0056 38.2017 94.3451 38.9545C93.6917 39.7003 92.8466 40.2827 91.8096 40.7017C90.7798 41.1136 89.5902 41.3196 88.2407 41.3196ZM112.155 19.1818V41H107.542V19.1818H112.155ZM121.303 31.5398V41H116.765V24.6364H121.09V27.5234H121.282C121.644 26.5717 122.251 25.8189 123.103 25.2649C123.956 24.7038 124.989 24.4233 126.204 24.4233C127.34 24.4233 128.331 24.6719 129.176 25.169C130.021 25.6662 130.678 26.3764 131.147 27.2997C131.615 28.2159 131.85 29.3097 131.85 30.581V41H127.311V31.3906C127.319 30.3892 127.063 29.608 126.544 29.0469C126.026 28.4787 125.312 28.1946 124.403 28.1946C123.792 28.1946 123.253 28.326 122.784 28.5888C122.322 28.8516 121.96 29.2351 121.697 29.7393C121.441 30.2365 121.31 30.8366 121.303 31.5398ZM136.327 41V24.6364H140.865V41H136.327ZM138.607 22.527C137.932 22.527 137.353 22.3033 136.87 21.8558C136.394 21.4013 136.156 20.858 136.156 20.2259C136.156 19.6009 136.394 19.0646 136.87 18.6172C137.353 18.1626 137.932 17.9354 138.607 17.9354C139.281 17.9354 139.857 18.1626 140.332 18.6172C140.815 19.0646 141.057 19.6009 141.057 20.2259C141.057 20.858 140.815 21.4013 140.332 21.8558C139.857 22.3033 139.281 22.527 138.607 22.527ZM154.104 24.6364V28.0455H144.25V24.6364H154.104ZM146.487 20.7159H151.026V35.9716C151.026 36.3906 151.089 36.7173 151.217 36.9517C151.345 37.179 151.523 37.3388 151.75 37.4311C151.984 37.5234 152.254 37.5696 152.56 37.5696C152.773 37.5696 152.986 37.5518 153.199 37.5163C153.412 37.4737 153.575 37.4418 153.689 37.4205L154.403 40.7976C154.175 40.8686 153.856 40.9503 153.444 41.0426C153.032 41.142 152.531 41.2024 151.942 41.2237C150.848 41.2663 149.889 41.1207 149.065 40.7869C148.249 40.4531 147.613 39.9347 147.158 39.2315C146.704 38.5284 146.48 37.6406 146.487 36.5682V20.7159ZM157.961 41V24.6364H162.499V41H157.961ZM160.241 22.527C159.566 22.527 158.987 22.3033 158.504 21.8558C158.028 21.4013 157.79 20.858 157.79 20.2259C157.79 19.6009 158.028 19.0646 158.504 18.6172C158.987 18.1626 159.566 17.9354 160.241 17.9354C160.915 17.9354 161.491 18.1626 161.966 18.6172C162.449 19.0646 162.691 19.6009 162.691 20.2259C162.691 20.858 162.449 21.4013 161.966 21.8558C161.491 22.3033 160.915 22.527 160.241 22.527ZM171.701 41.3089C170.657 41.3089 169.726 41.1278 168.91 40.7656C168.093 40.3963 167.446 39.853 166.971 39.1357C166.502 38.4112 166.267 37.5092 166.267 36.4297C166.267 35.5206 166.434 34.7571 166.768 34.1392C167.102 33.5213 167.557 33.0241 168.132 32.6477C168.707 32.2713 169.361 31.9872 170.092 31.7955C170.831 31.6037 171.605 31.4688 172.414 31.3906C173.366 31.2912 174.133 31.1989 174.716 31.1136C175.298 31.0213 175.721 30.8864 175.983 30.7088C176.246 30.5312 176.378 30.2685 176.378 29.9205V29.8565C176.378 29.1818 176.164 28.6598 175.738 28.2905C175.319 27.9212 174.723 27.7365 173.949 27.7365C173.132 27.7365 172.482 27.9176 171.999 28.2798C171.516 28.6349 171.196 29.0824 171.04 29.6222L166.843 29.2812C167.056 28.2869 167.475 27.4276 168.1 26.7031C168.725 25.9716 169.531 25.4105 170.518 25.0199C171.512 24.6222 172.663 24.4233 173.97 24.4233C174.879 24.4233 175.749 24.5298 176.58 24.7429C177.418 24.956 178.16 25.2862 178.807 25.7337C179.46 26.1811 179.975 26.7564 180.351 27.4595C180.728 28.1555 180.916 28.9901 180.916 29.9631V41H176.612V38.7308H176.484C176.221 39.2422 175.87 39.6932 175.429 40.0838C174.989 40.4673 174.46 40.7692 173.842 40.9893C173.224 41.2024 172.51 41.3089 171.701 41.3089ZM173 38.1768C173.668 38.1768 174.258 38.0455 174.769 37.7827C175.28 37.5128 175.682 37.1506 175.973 36.696C176.264 36.2415 176.41 35.7266 176.41 35.1513V33.4148C176.267 33.5071 176.072 33.5923 175.824 33.6705C175.582 33.7415 175.309 33.8089 175.003 33.8729C174.698 33.9297 174.392 33.983 174.087 34.0327C173.782 34.0753 173.505 34.1143 173.256 34.1499C172.723 34.228 172.258 34.3523 171.861 34.5227C171.463 34.6932 171.154 34.924 170.934 35.2152C170.713 35.4993 170.603 35.8544 170.603 36.2805C170.603 36.8984 170.827 37.3707 171.275 37.6974C171.729 38.017 172.304 38.1768 173 38.1768ZM189.875 19.1818V41H185.337V19.1818H189.875ZM194.411 41V24.6364H198.949V41H194.411ZM196.691 22.527C196.016 22.527 195.437 22.3033 194.954 21.8558C194.478 21.4013 194.24 20.858 194.24 20.2259C194.24 19.6009 194.478 19.0646 194.954 18.6172C195.437 18.1626 196.016 17.9354 196.691 17.9354C197.365 17.9354 197.941 18.1626 198.416 18.6172C198.899 19.0646 199.141 19.6009 199.141 20.2259C199.141 20.858 198.899 21.4013 198.416 21.8558C197.941 22.3033 197.365 22.527 196.691 22.527ZM203.399 41V38.294L211.411 28.3757V28.2585H203.676V24.6364H216.876V27.5874L209.355 37.2607V37.3778H217.153V41H203.399ZM228.512 41.3196C226.829 41.3196 225.38 40.9787 224.165 40.2969C222.958 39.608 222.027 38.6349 221.374 37.3778C220.721 36.1136 220.394 34.6186 220.394 32.8928C220.394 31.2095 220.721 29.7322 221.374 28.4609C222.027 27.1896 222.947 26.1989 224.133 25.4886C225.326 24.7784 226.726 24.4233 228.331 24.4233C229.41 24.4233 230.415 24.5973 231.346 24.9453C232.283 25.2862 233.1 25.8011 233.796 26.4901C234.499 27.179 235.046 28.0455 235.437 29.0895C235.827 30.1264 236.022 31.3409 236.022 32.733V33.9794H222.205V31.1669H231.75C231.75 30.5135 231.608 29.9347 231.324 29.4304C231.04 28.9261 230.646 28.532 230.142 28.2479C229.645 27.9567 229.066 27.8111 228.405 27.8111C227.716 27.8111 227.106 27.9709 226.573 28.2905C226.047 28.603 225.635 29.0256 225.337 29.5582C225.039 30.0838 224.886 30.6697 224.879 31.3161V33.9901C224.879 34.7997 225.028 35.4993 225.326 36.0888C225.632 36.6783 226.062 37.1328 226.616 37.4524C227.169 37.772 227.826 37.9318 228.586 37.9318C229.091 37.9318 229.552 37.8608 229.971 37.7188C230.39 37.5767 230.749 37.3636 231.047 37.0795C231.346 36.7955 231.573 36.4474 231.729 36.0355L235.927 36.3125C235.714 37.321 235.277 38.2017 234.616 38.9545C233.963 39.7003 233.118 40.2827 232.081 40.7017C231.051 41.1136 229.861 41.3196 228.512 41.3196ZM239.884 41V24.6364H244.284V27.4915H244.454C244.753 26.4759 245.253 25.7088 245.957 25.1903C246.66 24.6648 247.469 24.402 248.386 24.402C248.613 24.402 248.858 24.4162 249.121 24.4446C249.383 24.473 249.614 24.5121 249.813 24.5618V28.5888C249.6 28.5249 249.305 28.468 248.929 28.4183C248.552 28.3686 248.208 28.3438 247.895 28.3438C247.228 28.3438 246.631 28.4893 246.106 28.7805C245.587 29.0646 245.175 29.4624 244.87 29.9737C244.572 30.4851 244.422 31.0746 244.422 31.7422V41H239.884Z" fill="white"/>
<defs>
<linearGradient id="paint0_linear_512_156" x1="53.2879" y1="17.159" x2="40.6944" y2="42.8494" gradientUnits="userSpaceOnUse">
<stop offset="0.3" stop-color="#3E863D"/>
<stop offset="0.5" stop-color="#55934F"/>
<stop offset="0.8" stop-color="#5AAD45"/>
</linearGradient>
<linearGradient id="paint1_linear_512_156" x1="35.6005" y1="38.6304" x2="58.5389" y2="21.6817" gradientUnits="userSpaceOnUse">
<stop offset="0.57" stop-color="#3E863D"/>
<stop offset="0.72" stop-color="#619857"/>
<stop offset="1" stop-color="#76AC64"/>
</linearGradient>
<linearGradient id="paint2_linear_512_156" x1="37.7867" y1="29.9966" x2="56.7534" y2="29.9966" gradientUnits="userSpaceOnUse">
<stop offset="0.16" stop-color="#6BBF47"/>
<stop offset="0.38" stop-color="#79B461"/>
<stop offset="0.47" stop-color="#75AC64"/>
<stop offset="0.7" stop-color="#659E5A"/>
<stop offset="0.9" stop-color="#3E863D"/>
</linearGradient>
</defs>
</svg>
